<svg width="43" height="30" viewBox="0 0 43 30" fill="none" xmlns="http://www.w3.org/2000/svg">
<path d="M40.85 0H2.15001C0.962582 0 9.39748e-06 0.950529 9.39748e-06 2.1231V27.6003C-0.00133435 28.0464 0.141461 28.4813 0.407793 28.8416C0.811455 29.3948 1.45959 29.7228 2.15001 29.7234H40.85C41.5394 29.7229 42.1868 29.3961 42.5908 28.8444C42.8577 28.4832 43.0012 28.0475 43 27.6003V2.1231C43 0.950529 42.0374 0 40.85 0ZM1.43334 27.1948V4.65383L16.2074 15.9232L1.43334 27.1948ZM2.31843 28.308L17.3792 16.8178L20.1864 18.9579C20.9603 19.5477 22.0397 19.5477 22.8137 18.9579L25.6208 16.8178L40.6816 28.308H2.31843ZM41.5667 27.1948L26.7926 15.9232L41.5667 4.65383V27.1948ZM41.5667 2.86548L21.9379 17.8376C21.6799 18.0342 21.3201 18.0342 21.0621 17.8376L1.43334 2.86548V2.1231C1.43334 1.73227 1.75423 1.4154 2.15001 1.4154H40.85C41.2458 1.4154 41.5667 1.73227 41.5667 2.1231V2.86548Z" fill="#494948"/>
</svg>
