<svg width="16" height="16" viewBox="0 0 16 16" fill="none" xmlns="http://www.w3.org/2000/svg">
<path d="M8 0C3.58892 0 0 3.58862 0 8C0 12.4114 3.58892 16 8 16C12.4111 16 16 12.4114 16 8C16 3.58862 12.4111 0 8 0ZM8 15.3846C3.92831 15.3846 0.615385 12.0717 0.615385 8C0.615385 3.92831 3.92831 0.615385 8 0.615385C12.0717 0.615385 15.3846 3.92831 15.3846 8C15.3846 12.0717 12.0717 15.3846 8 15.3846Z" fill="#464343"/>
<path d="M10.9867 5.01308C10.8664 4.89277 10.672 4.89277 10.5517 5.01308L7.99998 7.56478L5.44829 5.01308C5.32798 4.89277 5.13352 4.89277 5.01321 5.01308C4.8929 5.13339 4.8929 5.32785 5.01321 5.44816L7.5649 7.99985L5.01321 10.5515C4.8929 10.6719 4.8929 10.8663 5.01321 10.9866C5.07321 11.0466 5.15198 11.0768 5.23075 11.0768C5.30952 11.0768 5.38829 11.0466 5.44829 10.9866L7.99998 8.43493L10.5517 10.9866C10.6117 11.0466 10.6904 11.0768 10.7692 11.0768C10.848 11.0768 10.9267 11.0466 10.9867 10.9866C11.1071 10.8663 11.1071 10.6719 10.9867 10.5515L8.43506 7.99985L10.9867 5.44816C11.1071 5.32785 11.1071 5.13339 10.9867 5.01308Z" fill="#464343"/>
</svg>
