<svg width="42" height="41" viewBox="0 0 42 41" fill="none" xmlns="http://www.w3.org/2000/svg">
<path d="M39.927 31.3385L31.6278 25.855C30.5746 25.1647 29.1629 25.3918 28.3843 26.3769L25.9668 29.4565C25.6561 29.8624 25.0914 29.9801 24.642 29.7327L24.1821 29.4816C22.6577 28.6583 20.7609 27.6334 16.9394 23.8457C13.1178 20.058 12.0812 18.1773 11.2503 16.6697L10.9982 16.2141C10.7451 15.7689 10.8617 15.207 11.2715 14.8967L14.3776 12.5022C15.3715 11.7307 15.601 10.3324 14.9051 9.28857L9.37055 1.06593C8.65735 0.00301939 7.22647 -0.316061 6.12235 0.341537L2.65196 2.40699C1.56154 3.04214 0.761539 4.07078 0.419712 5.27737C-0.829971 9.78877 0.110153 17.5748 11.6863 29.0456C20.8949 38.1686 27.7503 40.622 32.4622 40.622C33.5466 40.6266 34.6268 40.4868 35.6736 40.2063C36.8917 39.868 37.9301 39.0753 38.5707 37.9947L40.6575 34.5583C41.3221 33.4641 41.0003 32.0456 39.927 31.3385ZM39.4801 33.8637L37.3981 37.3021C36.9381 38.0821 36.1913 38.6556 35.3141 38.9025C31.1106 40.0459 23.7667 39.0988 12.6531 28.0877C1.53952 17.0765 0.583699 9.80099 1.73778 5.63556C1.98728 4.76543 2.56684 4.02453 3.35507 3.56805L6.82547 1.50529C7.30454 1.21968 7.92558 1.35812 8.23505 1.81937L11.2415 6.2915L13.7649 10.0413C14.0671 10.4941 13.9678 11.1009 13.5367 11.4359L10.4298 13.8304C9.48433 14.5467 9.21433 15.8427 9.79646 16.8714L10.0432 17.3155C10.9164 18.9023 12.0021 20.8764 15.9658 24.8029C19.9296 28.7294 21.9214 29.8052 23.5222 30.6703L23.9711 30.9154C25.0092 31.4921 26.3175 31.2246 27.0404 30.2878L29.4572 27.2096C29.7954 26.7827 30.4076 26.6844 30.8647 26.9835L39.1632 32.4671C39.629 32.7735 39.7687 33.3891 39.4801 33.8637Z" fill="#494948"/>
<path d="M23.2337 6.77139C29.6459 6.77845 34.8423 11.927 34.8495 18.2801C34.8495 18.654 35.1553 18.957 35.5327 18.957C35.9101 18.957 36.216 18.654 36.216 18.2801C36.208 11.1795 30.4003 5.42526 23.2337 5.41748C22.8563 5.41748 22.5504 5.72054 22.5504 6.09443C22.5504 6.46833 22.8563 6.77139 23.2337 6.77139Z" fill="#494948"/>
<path d="M23.2337 10.8337C27.3827 10.8385 30.7449 14.1698 30.7498 18.2806C30.7498 18.6545 31.0557 18.9575 31.433 18.9575C31.8104 18.9575 32.1163 18.6545 32.1163 18.2806C32.1106 13.4223 28.137 9.48529 23.2337 9.47974C22.8563 9.47974 22.5504 9.78279 22.5504 10.1567C22.5504 10.5306 22.8563 10.8337 23.2337 10.8337Z" fill="#494948"/>
<path d="M23.2337 14.8954C25.1195 14.8976 26.6478 16.4118 26.6501 18.2803C26.6501 18.6542 26.956 18.9573 27.3333 18.9573C27.7106 18.9573 28.0166 18.6542 28.0166 18.2803C28.0136 15.6644 25.874 13.5444 23.2337 13.5415C22.8563 13.5415 22.5504 13.8446 22.5504 14.2185C22.5504 14.5924 22.8563 14.8954 23.2337 14.8954Z" fill="#494948"/>
</svg>
