<svg width="43" height="30" fill="none" xmlns="http://www.w3.org/2000/svg"><path d="M40.85 0H2.15C.963 0 0 .95 0 2.123V27.6c-.001.446.141.881.408 1.242a2.158 2.158 0 001.742.881h38.7c.69 0 1.337-.327 1.74-.879.268-.36.411-.797.41-1.244V2.123C43 .951 42.037 0 40.85 0zM1.433 27.195V4.654l14.774 11.27-14.774 11.27zm.885 1.113l15.061-11.49 2.807 2.14c.774.59 1.854.59 2.628 0l2.807-2.14 15.06 11.49H2.319zm39.249-1.113L26.793 15.923l14.774-11.27v22.542zm0-24.33l-19.63 14.973a.724.724 0 01-.875 0L1.433 2.865v-.742c0-.39.321-.708.717-.708h38.7c.396 0 .717.317.717.708v.742z" fill="#494948"/></svg>