<svg width="16" height="16" fill="none" xmlns="http://www.w3.org/2000/svg"><path d="M8 0C3.589 0 0 3.589 0 8s3.589 8 8 8 8-3.589 8-8-3.589-8-8-8zm0 15.385C3.928 15.385.615 12.072.615 8 .615 3.928 3.928.615 8 .615c4.072 0 7.385 3.313 7.385 7.385 0 4.072-3.313 7.385-7.385 7.385z" fill="#464343"/><path d="M10.987 5.013a.307.307 0 00-.435 0L8 7.565 5.448 5.013a.307.307 0 10-.435.435L7.565 8l-2.552 2.552a.307.307 0 10.435.435L8 8.435l2.552 2.552a.307.307 0 00.435 0 .307.307 0 000-.435L8.435 8l2.552-2.552a.307.307 0 000-.435z" fill="#464343"/></svg>